<svg width="480" height="480" viewBox="0 0 480 480" fill="none" xmlns="http://www.w3.org/2000/svg">
<g clip-path="url(#clip0_1_2)">
<rect width="480" height="480" fill="none"/>
<rect width="480" height="480" rx="84" fill="#161B21"/>
<rect x="20.5" y="93.5" width="138" height="146" stroke="black"/>
<path d="M158.698 136.621L142.532 190.467C141.323 194.302 138.15 196.859 134.373 196.859H71.9739C68.3478 196.859 64.8728 194.462 63.6641 190.947L39.7924 123.359H26.0435C22.7196 123.359 20 120.483 20 116.967C20 113.452 22.7196 110.576 26.0435 110.576H44.0228C46.5913 110.576 48.8576 112.334 49.7641 114.89L74.3913 184.076H131.804L144.647 140.935H73.4848C70.1609 140.935 67.4413 138.059 67.4413 134.543C67.4413 131.028 70.1609 128.152 73.4848 128.152H152.957C154.921 128.152 156.734 129.271 157.791 130.868C159 132.466 159.302 134.703 158.698 136.621ZM74.9957 205.327C72.4272 205.327 69.8587 206.446 68.0457 208.363C66.2326 210.28 65.175 212.997 65.175 215.713C65.175 218.429 66.2326 221.146 68.0457 223.063C69.8587 224.98 72.4272 226.099 74.9957 226.099C77.5641 226.099 80.1326 224.98 81.9457 223.063C83.7587 221.146 84.8163 218.429 84.8163 215.713C84.8163 212.997 83.7587 210.28 81.9457 208.363C80.1326 206.446 77.5641 205.327 74.9957 205.327ZM129.236 205.327C126.667 205.327 124.099 206.446 122.286 208.363C120.473 210.28 119.415 212.997 119.415 215.713C119.415 218.429 120.473 221.146 122.286 223.063C124.099 224.98 126.667 226.099 129.236 226.099C131.804 226.099 134.373 224.98 136.186 223.063C137.999 221.146 139.057 218.429 139.057 215.713C139.057 212.997 137.999 210.28 136.186 208.363C134.373 206.446 131.804 205.327 129.236 205.327Z" fill="#F4A950"/>
<path d="M99.22 274.528C109.012 274.528 116.752 275.896 122.44 278.632C128.2 281.296 132.556 284.284 135.508 287.596C137.884 290.332 139.828 293.5 141.34 297.1C142.852 300.628 143.608 304.876 143.608 309.844C143.608 313.516 142.78 317.368 141.124 321.4C139.468 325.36 137.308 328.564 134.644 331.012C131.836 333.676 129.172 335.836 126.652 337.492C124.204 339.148 120.856 340.516 116.608 341.596C112.432 342.604 107.104 343.108 100.624 343.108C95.728 343.108 91.3 342.568 87.34 341.488C83.38 340.336 81.4 338.428 81.4 335.764C81.4 334.684 81.868 333.856 82.804 333.28C83.812 332.632 84.892 332.308 86.044 332.308C86.692 332.308 87.124 332.344 87.34 332.416C87.844 327.664 88.096 322.624 88.096 317.296C88.096 311.32 87.952 306.388 87.664 302.5C87.376 298.54 86.98 294.616 86.476 290.728C86.404 290.224 86.224 288.82 85.936 286.516C85.72 284.212 85.612 281.872 85.612 279.496C85.612 277.984 86.368 276.724 87.88 275.716C89.392 274.636 90.94 274.096 92.524 274.096C93.46 274.096 94.72 274.168 96.304 274.312C97.6 274.456 98.572 274.528 99.22 274.528ZM97.816 332.956C99.544 333.244 101.812 333.388 104.62 333.388C109.372 333.388 113.872 332.416 118.12 330.472C122.368 328.456 125.788 325.684 128.38 322.156C130.972 318.556 132.268 314.416 132.268 309.736C132.268 304.84 131.404 300.664 129.676 297.208C127.948 293.752 125.284 290.908 121.684 288.676C119.02 287.02 115.744 285.832 111.856 285.112C107.968 284.32 103.288 283.924 97.816 283.924C97.816 285.652 97.924 287.812 98.14 290.404C98.14 291.268 98.212 292.78 98.356 294.94C98.788 303.292 99.004 310.024 99.004 315.136C99.004 322.552 98.608 328.492 97.816 332.956ZM166.624 280.36C166.624 282.448 166.552 285.22 166.408 288.676L166.3 295.696C166.3 302.536 166.804 308.26 167.812 312.868C169.252 319.348 171.412 324.352 174.292 327.88C176.956 330.976 180.232 332.524 184.12 332.524C187.144 332.524 189.844 331.624 192.22 329.824C194.596 327.952 196.432 325.648 197.728 322.912C199.888 318.448 200.968 312.94 200.968 306.388C200.968 302.428 200.716 297.748 200.212 292.348C199.78 286.3 199.564 281.764 199.564 278.74C199.564 277.156 200.5 276.148 202.372 275.716C204.244 275.212 206.188 274.96 208.204 274.96C208.924 274.96 209.752 275.428 210.688 276.364C211.624 277.3 212.092 278.308 212.092 279.388C212.092 281.548 211.984 283.6 211.768 285.544C211.624 287.704 211.552 289.216 211.552 290.08C211.552 292.816 211.696 296.632 211.984 301.528C212.056 302.752 212.128 304.228 212.2 305.956C212.272 307.684 212.308 309.664 212.308 311.896C212.308 316.792 211.12 321.688 208.744 326.584C206.44 331.408 203.2 335.404 199.024 338.572C194.848 341.668 190.132 343.216 184.876 343.216C176.812 343.216 170.512 340.624 165.976 335.44C161.44 330.184 158.344 323.416 156.688 315.136C155.752 310.384 155.14 305.416 154.852 300.232C154.636 295.048 154.528 288.1 154.528 279.388C154.528 278.236 155.068 277.156 156.148 276.148C157.3 275.14 158.524 274.636 159.82 274.636C164.356 274.636 166.624 276.544 166.624 280.36ZM275.821 325.072C278.557 327.808 280.717 330.184 282.301 332.2C283.957 334.144 284.785 335.836 284.785 337.276C284.785 339.292 284.209 340.804 283.057 341.812C281.977 342.82 280.609 343.324 278.953 343.324C277.801 343.324 276.613 342.748 275.389 341.596C274.165 340.444 273.049 339.22 272.041 337.924C271.033 336.628 270.385 335.8 270.097 335.44C268.441 333.424 265.201 329.392 260.377 323.344C255.625 317.224 252.313 312.832 250.441 310.168C249.865 310.528 249.001 311.248 247.849 312.328C247.417 312.688 246.301 313.624 244.501 315.136C242.701 316.576 240.721 318.052 238.561 319.564C238.561 319.996 238.669 323.236 238.885 329.284C239.029 333.748 239.101 336.664 239.101 338.032C239.101 339.184 238.705 340.372 237.913 341.596C237.121 342.748 235.933 343.324 234.349 343.324C232.045 343.324 230.389 342.928 229.381 342.136C228.373 341.344 227.761 340.192 227.545 338.68C226.969 335.224 226.681 331.804 226.681 328.42C226.681 324.676 226.969 319.204 227.545 312.004C228.121 305.236 228.409 300.16 228.409 296.776C228.409 295.48 228.337 293.608 228.193 291.16C228.121 289.216 227.905 287.416 227.545 285.76C227.257 283.456 227.113 281.836 227.113 280.9C227.113 278.596 227.617 276.94 228.625 275.932C229.633 274.924 231.181 274.42 233.269 274.42C234.853 274.42 236.149 274.888 237.157 275.824C238.237 276.688 238.849 277.876 238.993 279.388C239.353 285.508 239.533 290.26 239.533 293.644C239.461 295.3 239.317 297.64 239.101 300.664C238.957 303.616 238.813 305.524 238.669 306.388C241.189 304.516 246.229 300.124 253.789 293.212C261.421 286.228 266.533 281.512 269.125 279.064C269.485 278.704 270.097 278.092 270.961 277.228C271.897 276.292 272.761 275.644 273.553 275.284C274.345 274.924 275.209 274.744 276.145 274.744C277.441 274.744 278.557 275.356 279.493 276.58C280.501 277.732 281.005 278.992 281.005 280.36C281.005 281.152 280.681 282.016 280.033 282.952C279.457 283.816 278.413 285.004 276.901 286.516C271.645 291.988 265.813 297.676 259.405 303.58C261.061 306.244 263.797 310.096 267.613 315.136C271.501 320.104 274.237 323.416 275.821 325.072ZM343.751 341.38C342.815 340.156 342.023 338.824 341.375 337.384C340.727 335.872 340.043 334.072 339.323 331.984C339.179 331.624 338.747 330.544 338.027 328.744C337.379 326.944 336.623 325.396 335.759 324.1C331.223 324.748 327.515 325.072 324.635 325.072C323.051 325.072 321.287 325.036 319.343 324.964C317.471 324.82 316.067 324.748 315.131 324.748C311.531 324.46 308.651 324.316 306.491 324.316C305.627 325.468 304.871 326.692 304.223 327.988C303.647 329.284 302.891 331.228 301.955 333.82C300.659 337.564 299.543 340.228 298.607 341.812C297.959 342.892 296.699 343.432 294.827 343.432C293.243 343.432 291.767 343.108 290.399 342.46C289.103 341.74 288.455 340.768 288.455 339.544C289.031 336.808 289.931 333.928 291.155 330.904C292.451 327.808 294.287 323.704 296.663 318.592L300.983 308.008C303.359 301.96 305.519 296.776 307.463 292.456C309.479 288.136 312.107 283.024 315.347 277.12C315.779 276.256 316.499 275.536 317.507 274.96C318.515 274.312 319.631 273.988 320.855 273.988C322.223 273.988 323.195 274.096 323.771 274.312C324.419 274.456 324.923 274.744 325.283 275.176C325.643 275.536 326.183 276.328 326.903 277.552C329.351 281.368 331.439 285.292 333.167 289.324C334.967 293.356 337.235 298.936 339.971 306.064L342.239 311.788C344.255 316.972 345.983 321.328 347.423 324.856C348.935 328.312 350.591 331.48 352.391 334.36C353.543 336.232 354.119 337.528 354.119 338.248C354.119 339.976 353.579 341.308 352.499 342.244C351.491 343.108 350.159 343.54 348.503 343.54C346.415 343.54 344.831 342.82 343.751 341.38ZM332.627 315.244C331.475 312.796 329.819 308.548 327.659 302.5C325.427 296.02 323.195 290.872 320.963 287.056C319.595 290.512 317.579 294.976 314.915 300.448C313.115 303.832 311.063 308.728 308.759 315.136C313.367 315.712 318.335 316 323.663 316C327.479 316 330.467 315.748 332.627 315.244ZM408.729 282.304C408.729 280.216 409.197 278.416 410.133 276.904C411.141 275.32 412.617 274.528 414.561 274.528C416.217 274.528 417.693 274.852 418.989 275.5C420.285 276.148 420.933 277.228 420.933 278.74C420.933 281.692 420.789 285.832 420.501 291.16C420.213 296.344 420.069 300.196 420.069 302.716C420.069 306.676 420.213 311.968 420.501 318.592C420.789 324.928 420.933 329.572 420.933 332.524C420.933 334.9 420.897 336.664 420.825 337.816C420.825 338.968 420.177 340.12 418.881 341.272C417.657 342.352 415.749 342.892 413.157 342.892C411.789 342.892 410.601 342.676 409.593 342.244C408.657 341.74 408.009 341.2 407.649 340.624C404.265 336.52 399.333 329.536 392.853 319.672C385.581 308.656 379.641 300.232 375.033 294.4C375.609 299.584 375.897 305.92 375.897 313.408C375.897 316.72 375.825 321.04 375.681 326.368C375.609 331.624 375.465 335.08 375.249 336.736C374.961 338.824 374.313 340.444 373.305 341.596C372.369 342.676 370.857 343.216 368.769 343.216C367.185 343.216 365.997 342.784 365.205 341.92C364.485 340.984 364.053 339.4 363.909 337.168C363.837 334.216 364.017 329.788 364.449 323.884C364.521 322.948 364.629 321.328 364.773 319.024C364.917 316.72 364.989 314.668 364.989 312.868C364.989 307.9 364.737 302.212 364.233 295.804C363.801 288.748 363.585 283.528 363.585 280.144C363.585 278.416 364.197 277.084 365.421 276.148C366.717 275.212 368.193 274.744 369.849 274.744C371.289 274.744 372.801 275.104 374.385 275.824C380.577 283.6 388.965 295.192 399.549 310.6L409.701 326.152C409.773 325 409.809 323.38 409.809 321.292C409.809 317.62 409.737 313.66 409.593 309.412C409.449 305.164 409.341 302.284 409.269 300.772C408.909 293.788 408.729 287.632 408.729 282.304Z" fill="#F4A950"/>
<path d="M239 184.08C239 195.84 230.36 202.56 218.6 202.56C204.32 202.56 194.72 194.16 185.48 168.72L194 165.24C200.48 183.96 207.32 193.8 217.76 193.8C224.84 193.8 229.52 189.84 229.52 183C229.52 177.48 225.8 173.16 221.12 169.8C218.12 170.64 214.52 171.24 210.44 171.6L208.52 163.08C223.52 161.16 227.48 157.92 227.48 151.32C227.48 146.04 224 142.68 217.52 142.68C212.12 142.68 206.96 144.36 201.8 147.48L198.68 139.08C204.2 135.96 210.44 134.16 217.88 134.16C231.56 134.16 237.08 142.2 237.08 151.44C237.08 157.68 234.8 162.72 229.4 166.2L229.64 166.44C233.48 167.4 237.68 167.76 241.4 167.76C245.12 167.76 249.08 167.4 253.28 166.32V143.88H244.52V135.36H275.48V143.88H263V210H253.28V175.2C250.04 176.04 246.68 176.28 243.32 176.28C241.4 176.28 239.12 176.16 236.84 175.8C238.28 178.32 239 181.2 239 184.08ZM331.121 143.88V210H321.401V185.88C317.441 188.76 311.801 190.68 305.561 190.68C291.281 190.68 283.121 182.76 283.121 166.8V143.88H273.641V135.36H343.601V143.88H331.121ZM321.401 143.88H292.841V167.16C292.841 177.48 297.281 182.16 305.321 182.16C311.441 182.16 317.321 178.8 321.401 174.48V143.88ZM341.844 135.36H410.124V143.88H397.764V210H388.044V174.24H366.324V180.72C366.324 185.16 363.924 187.44 360.204 187.44C354.324 187.44 346.284 178.56 346.284 171.84C346.284 168.24 348.204 165.72 353.604 165.72H388.044V143.88H341.844V135.36ZM428.806 143.88V210H419.086V143.88H408.406V135.36H418.846C415.246 118.92 409.726 111 401.566 111C394.726 111 391.726 115.08 391.726 121.68C391.726 126.36 393.406 131.04 395.806 136.2H386.206C383.446 130.56 382.006 124.92 382.006 119.88C382.006 109.68 388.606 102.48 400.006 102.48C416.206 102.48 423.286 114.12 427.846 135.36H441.166V143.88H428.806Z" fill="#F4A950"/>
</g>
<defs>
<clipPath id="clip0_1_2">
<rect width="480" height="480" fill="white"/>
</clipPath>
</defs>
</svg>
